<?xml version="1.0" standalone="no"?>
<!DOCTYPE svg PUBLIC "-//W3C//DTD SVG 20010904//EN"
 "http://www.w3.org/TR/2001/REC-SVG-20010904/DTD/svg10.dtd">
<svg version="1.0" xmlns="http://www.w3.org/2000/svg"
 width="3465.000000pt" height="3465.000000pt" viewBox="0 0 3465.000000 3465.000000"
 preserveAspectRatio="xMidYMid meet">

<g transform="translate(0.000000,3465.000000) scale(0.100000,-0.100000)"
fill="#000000" stroke="none">
<path d="M4620 17964 c-14 -2 -63 -9 -110 -15 -186 -25 -414 -110 -557 -207
-191 -130 -322 -315 -374 -527 -31 -125 -31 -314 -1 -437 62 -251 212 -420
501 -563 107 -54 732 -316 916 -385 140 -53 204 -82 266 -122 118 -75 161
-142 161 -250 0 -260 -320 -437 -751 -415 -268 14 -498 116 -659 292 -112 122
-189 302 -199 466 -4 52 -11 93 -18 99 -8 6 -57 10 -121 8 l-109 -3 -3 -409
c-2 -369 -1 -411 14 -428 9 -10 56 -44 103 -77 297 -203 677 -311 1089 -311
587 1 1034 220 1213 595 55 115 71 182 76 330 15 390 -151 658 -524 847 -59
31 -286 124 -503 208 -448 173 -522 206 -588 265 -113 101 -142 276 -72 424
76 160 259 255 490 255 124 -1 201 -19 316 -74 199 -96 338 -258 368 -429 6
-36 15 -72 19 -78 10 -16 189 -18 218 -3 18 10 19 25 19 359 0 267 -3 351 -12
359 -21 16 -364 131 -487 163 -63 16 -155 36 -205 45 -86 14 -422 28 -476 18z"/>
<path d="M21655 17949 c-379 -65 -743 -268 -982 -548 -372 -435 -497 -1072
-317 -1619 133 -407 427 -741 818 -928 263 -126 558 -185 850 -170 351 18 614
115 837 311 35 30 67 55 71 55 4 0 24 -15 44 -32 50 -44 113 -143 120 -190 4
-21 12 -42 19 -48 8 -7 56 -10 121 -8 l109 3 5 470 5 470 33 68 c38 76 80 111
150 122 26 4 46 14 52 25 13 25 13 186 0 211 -10 18 -28 19 -598 19 -444 0
-591 -3 -600 -12 -13 -13 -17 -205 -4 -224 4 -6 25 -15 48 -18 80 -14 137 -68
169 -161 14 -38 19 -94 23 -238 5 -221 10 -210 -106 -256 -144 -58 -192 -66
-372 -66 -148 0 -175 3 -263 28 -369 102 -649 380 -771 765 -52 166 -73 371
-56 548 25 257 107 461 254 638 102 121 291 237 464 283 86 24 115 27 257 26
131 0 174 -4 237 -21 179 -49 279 -104 393 -217 128 -128 186 -250 209 -439
l11 -101 109 -3 c71 -2 113 1 122 9 12 9 14 84 14 431 l0 419 -47 47 c-170
170 -534 317 -893 362 -136 16 -408 11 -535 -11z"/>
<path d="M31135 17964 c-175 -19 -396 -83 -535 -155 -109 -56 -240 -159 -309
-242 -68 -81 -151 -237 -178 -337 -26 -95 -25 -367 1 -465 63 -239 216 -410
486 -545 93 -47 753 -324 945 -397 224 -85 330 -152 382 -240 24 -41 28 -59
28 -123 0 -62 -5 -85 -28 -132 -84 -171 -293 -270 -602 -285 -453 -22 -823
205 -945 580 -12 37 -27 116 -34 175 l-12 107 -108 3 c-71 2 -113 -1 -122 -9
-12 -9 -14 -81 -14 -411 l0 -399 33 -30 c102 -95 337 -220 532 -282 233 -75
445 -103 719 -94 185 6 283 19 429 58 357 96 631 315 736 588 44 115 55 183
55 321 -2 261 -83 453 -261 621 -145 137 -243 186 -758 384 -446 172 -550 219
-612 281 -65 65 -86 120 -91 234 -5 132 17 191 107 281 107 107 231 153 411
153 163 0 300 -46 447 -150 129 -92 225 -235 241 -362 5 -36 15 -68 23 -73 22
-14 203 -11 217 3 9 9 12 104 12 364 l0 353 -52 19 c-102 38 -394 131 -473
151 -149 38 -267 52 -450 56 -99 1 -198 1 -220 -1z"/>
<path d="M6216 17864 c-3 -9 -6 -199 -6 -423 0 -303 3 -410 12 -419 17 -17
212 -16 225 1 6 6 18 34 28 61 48 126 163 254 287 316 110 55 196 71 385 73
l158 2 3 -1105 c2 -963 0 -1112 -13 -1164 -28 -108 -83 -169 -169 -185 -26 -5
-50 -12 -54 -16 -12 -12 -15 -191 -3 -214 l12 -21 617 0 c467 0 621 3 630 12
8 8 12 47 12 109 0 107 -10 129 -56 129 -30 0 -93 31 -115 56 -27 31 -56 95
-68 152 -8 37 -11 376 -11 1146 0 988 2 1094 16 1100 23 9 174 7 283 -4 240
-23 421 -145 518 -350 19 -41 38 -82 43 -90 6 -12 30 -15 121 -15 l114 0 0
430 0 430 -1481 3 c-1345 2 -1482 1 -1488 -14z"/>
<path d="M9521 17861 c-14 -25 -14 -186 -1 -212 7 -12 21 -19 38 -19 44 0 114
-41 144 -85 59 -86 58 -60 58 -1220 0 -922 -2 -1069 -15 -1120 -29 -108 -83
-168 -170 -184 -26 -5 -51 -15 -56 -22 -12 -20 -11 -186 1 -210 10 -18 28 -19
628 -19 467 0 621 3 630 12 8 8 12 47 12 109 0 107 -10 129 -56 129 -37 0
-100 36 -127 72 -59 79 -62 104 -62 458 l0 325 139 0 139 0 184 -290 c370
-585 360 -565 309 -565 -46 0 -56 -23 -56 -129 0 -71 4 -102 14 -110 9 -8 202
-10 702 -9 l689 3 3 109 c3 123 -2 136 -58 136 -58 0 -188 37 -268 76 -125 61
-172 115 -376 434 l-183 285 -158 7 c-158 7 -310 29 -349 50 -18 10 -5 14 80
29 427 76 751 324 865 663 38 114 53 227 47 365 -21 472 -332 798 -880 924
-90 20 -119 21 -975 24 -870 4 -882 4 -892 -16z m1569 -405 c258 -73 400 -276
400 -573 0 -298 -132 -496 -385 -576 -64 -20 -90 -22 -315 -22 l-245 0 -3 585
c-1 322 0 591 3 599 8 20 466 9 545 -13z"/>
<path d="M13930 17854 c-12 -30 -12 -170 -1 -198 6 -15 25 -23 81 -32 42 -7
101 -27 138 -45 72 -37 167 -121 160 -141 -72 -181 -868 -2129 -886 -2167 -56
-113 -213 -230 -332 -246 -100 -14 -91 0 -88 -133 l3 -117 449 -3 c353 -2 451
0 458 10 13 21 10 212 -4 226 -7 7 -24 12 -39 12 -15 0 -35 7 -43 16 -32 31
-17 95 75 328 l54 136 584 -3 585 -2 58 -145 c58 -143 88 -239 88 -278 0 -29
-27 -52 -59 -52 -46 0 -52 -17 -49 -136 l3 -109 654 -3 c517 -2 656 0 663 10
13 21 10 212 -4 226 -7 7 -27 12 -45 12 -44 0 -143 34 -196 67 -57 34 -122 98
-157 153 -28 45 -877 2114 -911 2223 -22 67 -25 142 -7 153 7 4 28 10 48 14
l35 5 0 120 0 120 -653 3 -652 2 -10 -26z m813 -1426 c108 -266 199 -491 203
-500 6 -17 -18 -18 -406 -18 -388 0 -412 1 -407 18 2 9 88 222 190 472 102
250 190 468 196 483 6 15 14 27 19 27 5 0 97 -217 205 -482z"/>
<path d="M16822 17868 c-17 -17 -16 -212 1 -225 6 -6 30 -13 51 -16 92 -14
154 -94 176 -227 8 -45 10 -394 8 -1120 -3 -986 -4 -1058 -21 -1100 -40 -101
-105 -160 -175 -160 -15 0 -33 -5 -40 -12 -13 -13 -17 -192 -6 -222 5 -14 54
-16 444 -16 390 0 439 2 444 16 11 30 7 209 -6 222 -7 7 -25 12 -40 12 -44 0
-105 36 -133 78 -62 94 -59 58 -63 845 -2 426 1 717 6 717 5 0 443 -425 973
-945 l964 -945 190 3 190 2 5 1320 c6 1451 2 1364 65 1456 29 40 95 79 136 79
43 0 49 17 49 125 0 65 -4 105 -12 113 -9 9 -120 12 -438 12 -318 0 -429 -3
-438 -12 -17 -17 -16 -212 1 -225 6 -6 30 -13 51 -16 88 -14 153 -93 176 -216
13 -68 14 -1421 1 -1421 -5 0 -443 425 -973 945 l-963 944 -305 1 c-225 0
-309 -3 -318 -12z"/>
<path d="M23835 17858 c-3 -13 -5 -65 -3 -117 3 -104 4 -105 73 -116 56 -9
127 -82 151 -155 18 -52 19 -116 22 -1090 2 -689 -1 -1062 -8 -1115 -14 -109
-49 -178 -108 -216 -26 -16 -60 -29 -78 -29 -49 0 -55 -15 -52 -136 l3 -109
1220 0 1220 0 3 424 c2 333 0 426 -10 433 -7 4 -59 8 -114 8 l-102 0 -52 -106
c-88 -181 -220 -290 -410 -341 -55 -15 -113 -18 -395 -18 l-330 0 -3 473 -2
472 229 0 c197 0 238 -3 290 -19 105 -32 154 -83 169 -174 l8 -42 113 -3 c85
-2 117 1 123 10 4 7 8 203 8 435 0 370 -2 423 -16 437 -12 12 -37 16 -105 16
-50 0 -98 -4 -108 -10 -11 -5 -21 -26 -25 -52 -10 -59 -40 -104 -93 -135 -75
-44 -138 -53 -376 -53 l-217 0 2 473 3 472 245 3 c409 5 541 -17 683 -114 91
-62 150 -132 199 -234 22 -47 44 -92 48 -100 6 -12 30 -15 121 -15 l114 0 0
430 0 430 -1217 3 -1218 2 -5 -22z"/>
<path d="M26615 17867 c-3 -7 -4 -62 -3 -122 l3 -109 42 -8 c92 -15 142 -63
173 -166 20 -66 20 -86 18 -1162 l-3 -1095 -24 -52 c-29 -66 -87 -120 -138
-128 -79 -14 -74 -4 -71 -133 l3 -117 624 -3 c493 -2 626 0 633 10 13 21 10
212 -4 226 -7 7 -26 12 -43 12 -83 1 -164 96 -185 218 -6 41 -10 176 -8 352
l3 285 139 0 140 0 139 -220 c304 -478 377 -598 377 -616 0 -13 -7 -19 -22
-19 -46 0 -53 -14 -56 -114 -3 -57 1 -102 7 -115 l12 -21 692 2 692 3 3 117
c3 133 12 120 -96 133 -80 9 -198 49 -271 92 -94 56 -153 129 -344 428 l-173
270 -146 7 c-194 8 -368 36 -368 58 0 4 35 13 78 20 249 40 475 147 636 300
132 126 213 260 257 425 32 120 37 330 11 455 -82 396 -379 662 -864 773 -90
20 -119 21 -976 24 -737 3 -883 2 -887 -10z m1565 -411 c204 -58 343 -203 385
-404 34 -160 11 -376 -52 -495 -39 -72 -137 -168 -209 -205 -122 -61 -155 -67
-424 -67 l-245 0 -3 589 c-2 465 1 592 10 598 22 16 475 2 538 -16z"/>
</g>
</svg>
